<svg fill="#9ca3af" xmlns="http://www.w3.org/2000/svg" viewBox="0 0 64 80" x="0px" y="0px"><g><path d="M33.613,28.052a7.924,7.924,0,0,0,1.241,2.056,7.974,7.974,0,0,0,9.7,2.058A7.956,7.956,0,0,0,49,25v-.352A3.514,3.514,0,0,1,47.5,25H45a3.494,3.494,0,0,1-3.449-3H40.457a3.5,3.5,0,0,1-.741,1.7,2.3,2.3,0,0,1-.242.279A3.519,3.519,0,0,1,37,25H34.663A13.861,13.861,0,0,1,33.613,28.052ZM40,26a1,1,0,0,0,2,0h2a3,3,0,0,1-6,0Z"/><path d="M35,23h2a1.507,1.507,0,0,0,1.062-.437c.011-.015.09-.109.1-.125a1.478,1.478,0,0,0-.933-2.4,20.154,20.154,0,0,1-2.3.585c.045.454.07.912.07,1.377,0,.369-.02.734-.048,1.1Z"/><path d="M43.938,20.437A1.5,1.5,0,0,0,45,23h2.5a1.509,1.509,0,0,0,1.062-.437,1.661,1.661,0,0,0,.27-.359A1.511,1.511,0,0,0,47.5,20H45A1.507,1.507,0,0,0,43.938,20.437Z"/><path d="M41.136,18.308c-.519.3-1.044.57-1.576.819a3.509,3.509,0,0,1,.584.873h1.7a3.48,3.48,0,0,1,.675-.977A3.521,3.521,0,0,1,45,18h.254a18.015,18.015,0,0,1-.795-2.06A20.219,20.219,0,0,1,41.136,18.308Z"/><path d="M35.145,47.729l3.3,3.3L34.307,40h-.63l-1.323,3.308,2.888.721a1,1,0,0,1,.706,1.287Z"/><path d="M36.529,18.155c.1-.032.214-.06.316-.094a.969.969,0,0,1,.131-.034,17.015,17.015,0,0,0,3.158-1.45,16.287,16.287,0,0,0,4.1-3.218,1,1,0,0,1,1.749.448A15.774,15.774,0,0,0,47.46,18h.04a3.505,3.505,0,0,1,3.214,2.119L51,19.688V17a8.545,8.545,0,0,0-1.147-4.3A9.5,9.5,0,0,0,42.942,8.11a.935.935,0,0,1-.132-.027A10.461,10.461,0,0,0,41.52,8H40.48A9.762,9.762,0,0,0,33.6,10.81c-.084.084-.164.173-.245.26q-.219.237-.422.489a8.913,8.913,0,0,0-1.053,1.655,13.97,13.97,0,0,1,2.693,5.435A17.913,17.913,0,0,0,36.529,18.155Z"/><path d="M50.938,10.713a3.995,3.995,0,1,0-6.573-4.352A11.535,11.535,0,0,1,50.938,10.713Z"/><path d="M28.657,22a9.723,9.723,0,0,0-3.134-2.1,4.848,4.848,0,0,1,0,4.194A9.723,9.723,0,0,0,28.657,22Z"/><path d="M51,25a2,2,0,0,0,1.413-3.413,1.894,1.894,0,0,0-.18-.141L51,23.3Z"/><polygon points="43.307 46 38.693 46 41 52.151 43.307 46"/><path d="M46.758,44.029l2.888-.721L48.323,40h-.63L43.558,51.028l3.3-3.3-.8-2.413a1,1,0,0,1,.706-1.287Z"/><path d="M45.575,39.952A2,2,0,0,1,44,38V34.523a9.672,9.672,0,0,1-6,0V38a2,2,0,0,1-1.575,1.952L37.943,44h6.114Z"/><path d="M18,22a3,3,0,1,0,3-3A3,3,0,0,0,18,22Zm4,1H20V21h2Z"/><path d="M50.5,40.05l1.432,3.578a1,1,0,0,1-.687,1.342l-2.952.738.658,1.975a1,1,0,0,1-.241,1.024l-7,7c-.015.014-.035.02-.051.033a1.007,1.007,0,0,1-.1.091l-.01.009a.8.8,0,0,1-.112.051.912.912,0,0,1-.083.041c-.02.007-.037.017-.058.024a1,1,0,0,1-.249.038C41.026,56,41.014,56,41,56s-.026-.005-.039-.006a1,1,0,0,1-.249-.038c-.021-.007-.038-.017-.058-.024a.912.912,0,0,1-.083-.041.8.8,0,0,1-.112-.051l-.01-.009a1.007,1.007,0,0,1-.1-.091c-.016-.013-.036-.019-.051-.033l-7-7a1,1,0,0,1-.241-1.024l.658-1.975-2.952-.738a1,1,0,0,1-.687-1.342L31.523,40h-.4A5.035,5.035,0,0,0,27,42.185V46a1,1,0,0,1-1,1H24a2.933,2.933,0,0,1-.5,1.637v6.139l4.7-6.369A1,1,0,0,1,29,48h2.289a1,1,0,0,1,.859,1.511,6.823,6.823,0,0,0,.621,7.849A1,1,0,0,1,33,58v4H49V58a1,1,0,0,1,.231-.64,6.823,6.823,0,0,0,.621-7.849l1.718-1.023A8.826,8.826,0,0,1,51,58.35V62h4V45A4.99,4.99,0,0,0,50.5,40.05ZM42,60H40V58h2Z"/><path d="M33,22A12,12,0,1,0,21,34,12.013,12.013,0,0,0,33,22ZM11,22A10,10,0,1,1,21,32,10.011,10.011,0,0,1,11,22Z"/><path d="M21,36c-.338,0-.668-.027-1-.051V39h2V35.949C21.668,35.973,21.338,36,21,36Z"/><path d="M18.321,48.324l-1.3,9.108a2.251,2.251,0,1,0,4.479.318v-7.8a2.886,2.886,0,0,1-3.179-1.622Z"/><path d="M21,48a.978.978,0,0,0,.741-.341A.944.944,0,0,0,22,47H20A1,1,0,0,0,21,48Z"/><polygon points="19 45 25 45 25 41 22.5 41 19 41 19 45"/><path d="M28.519,24.705A13.023,13.023,0,0,1,21,27a13.023,13.023,0,0,1-7.519-2.3,7.986,7.986,0,0,0,15.038,0Z"/><path d="M28.519,19.3a7.986,7.986,0,0,0-15.038,0A13.023,13.023,0,0,1,21,17,13.023,13.023,0,0,1,28.519,19.3Z"/><path d="M16,22a4.949,4.949,0,0,1,.477-2.1A9.723,9.723,0,0,0,13.343,22a9.723,9.723,0,0,0,3.134,2.1A4.949,4.949,0,0,1,16,22Z"/></g><text x="0" y="79" fill="#000000" font-size="5px" font-weight="bold" font-family="'Helvetica Neue', Helvetica, Arial-Unicode, Arial, Sans-serif">Created by monkik</text><text x="0" y="84" fill="#000000" font-size="5px" font-weight="bold" font-family="'Helvetica Neue', Helvetica, Arial-Unicode, Arial, Sans-serif">from the Noun Project</text></svg>