<svg fill="#9ca3af" xmlns="http://www.w3.org/2000/svg" xmlns:xlink="http://www.w3.org/1999/xlink" version="1.1" x="0px" y="0px" viewBox="0 0 68 85" style="enable-background:new 0 0 72 72;" xml:space="preserve"><g><path d="M34.3989334,26.001606c0.8554688-0.4970703,1.4648438-1.2958984,1.7167969-2.2490234   c0.0625-0.2369385,0.1010742-0.4765625,0.1162109-0.7160645c0-0.0013428-0.0009766-0.0024414-0.0009766-0.0036621   c0.0009766-0.0192871-0.0014648-0.0385742-0.0004883-0.0578613c0.0087891-0.1932373,0.0004883-0.3858643-0.0209961-0.5771484   c-0.0087891-0.0738525-0.0229492-0.1469727-0.0361328-0.2203369c-0.0249023-0.1424561-0.0585938-0.2834473-0.1005859-0.4227295   c-0.0219727-0.0734863-0.0424805-0.1472168-0.0693359-0.2194824c-0.0742188-0.1999512-0.1586914-0.3969727-0.2680664-0.5852051   c0-0.0004883-0.0004883-0.0009766-0.0004883-0.0013428c-0.2563477-0.4385986-0.5908203-0.8052979-0.9755859-1.0924072   c-1.1533203-0.8605957-2.7617207-1.0085449-4.0898457-0.2424316l-4.0126953,2.3378906   c0.7548828,0.2158203,1.5205078,0.7490234,2.2070313,1.5722656c1.1494141,1.3779297,1.8691406,3.3339844,1.5136719,4.8134766   L34.3989334,26.001606z"/><path d="M25.0986385,22.8595161l-2.0214844,1.1778564l1.3540039,0.7845459   c0.0004883,0.0002441,0.0004883,0.0004883,0.0009766,0.0007324l0.75,0.4372559l2.8730469,1.668457   c0.0532227,0.0307617,0.0957031,0.0732422,0.1474609,0.105957c0.159668,0.1013184,0.3129883,0.2097168,0.4575195,0.3288574   c0.0820313,0.0679932,0.159668,0.1391602,0.2368164,0.2124023c0.1201172,0.114502,0.2324219,0.2365723,0.3393555,0.3640137   c0.0581055,0.0690918,0.1206055,0.1335449,0.1738281,0.2060547c0.0463867,0.0622559,0.0849609,0.1303711,0.1279297,0.1950684   c0.4301758-1.2075195-0.2426758-3.0510254-1.2885742-4.3039551C27.8554745,23.5619087,26.457037,22.0816841,25.0986385,22.8595161z   "/><path d="M43.2915115,35.7008247c0.9404297-0.5419922,1.8779297-0.6152344,2.5751953-0.1962891l1.105957,0.6376953   c0.3105469-0.1411133,0.6152344-0.2424316,0.9121094-0.3083496c0.2270508-0.7432861,0.347168-1.5031738,0.3549805-2.2609863   l0.0117188-4.4267578c-0.0068359,0.0151367-0.0166016,0.0297852-0.0234375,0.0449219   c-0.1206055,0.2596436-0.2539063,0.5166016-0.3999023,0.770752c-0.012207,0.0212402-0.0234375,0.0427246-0.0356445,0.0637207   c-0.3164063,0.5410156-0.6904297,1.0688477-1.1201172,1.5814209c-0.0332031,0.0391846-0.0673828,0.0777588-0.1005859,0.1166992   c-0.1826172,0.2125244-0.375,0.4223633-0.5766602,0.6292725c-0.0444336,0.0456543-0.0878906,0.0917969-0.1333008,0.137207   c-0.4697266,0.46875-0.987793,0.9221191-1.5546875,1.3579102c-0.0952148,0.0738525-0.1948242,0.1459961-0.2929688,0.21875   c-0.1860352,0.1369629-0.3764648,0.2720947-0.5717773,0.4053955c-0.1225586,0.0841064-0.2451172,0.1680908-0.371582,0.2506104   c-0.1962891,0.1274414-0.3999023,0.2519531-0.6049805,0.3756104c-0.105957,0.0643311-0.2050781,0.131958-0.3139648,0.1951904   c-9.0976563,5.28125-23.9472675,5.2802734-33.1015625,0.0009766c-0.1083984-0.0622559-0.206543-0.1289063-0.3120117-0.1921387   c-0.2045898-0.1223145-0.4072266-0.2449951-0.6025391-0.3708496c-0.1601567-0.1030273-0.3139653-0.2080078-0.4682622-0.3132324   c-0.1459961-0.1000977-0.2895508-0.2010498-0.4301758-0.3032227c-0.1533203-0.1109619-0.3061523-0.2219238-0.453125-0.3352051   c-0.144043-0.1113281-0.2807617-0.2250977-0.418457-0.338623c-0.2241211-0.184082-0.4394531-0.3708496-0.6469727-0.5605469   c-0.1279297-0.1169434-0.2558594-0.2338867-0.3774414-0.3527832c-0.1191406-0.1164551-0.2324219-0.234375-0.3452148-0.3527832   c-0.1166992-0.1223145-0.2290039-0.2457275-0.3393555-0.3701172c-0.0991211-0.1120605-0.1992188-0.2236328-0.2929688-0.3371582   c-0.171875-0.208252-0.3354492-0.4187012-0.4892576-0.6318359c-0.0654297-0.0906982-0.125-0.1827393-0.1870117-0.274292   c-0.121582-0.1794434-0.2387695-0.3599854-0.347168-0.5426025c-0.0556641-0.0930176-0.1079102-0.1865234-0.159668-0.2802734   c-0.1035156-0.1870117-0.199707-0.3752441-0.2895508-0.5650635c-0.0244141-0.0516357-0.0556641-0.1019287-0.0791016-0.1536865   L2.801276,33.439106c-0.0107422,3.4492188,2.3437498,6.7099609,6.6298828,9.1816406   c8.5947256,4.9628906,22.1611328,5.1972656,31.1826172,0.6015625c-0.1005859-0.1228027-0.1865234-0.2611084-0.262207-0.409668   c-0.0371094-0.0725098-0.0649414-0.1530762-0.0957031-0.2316895c-0.0429688-0.1092529-0.0800781-0.222168-0.1108398-0.3415527   c-0.0195313-0.078125-0.0390625-0.1552734-0.0532227-0.237793c-0.0371094-0.2080078-0.0620117-0.4239502-0.0620117-0.6542969   C40.0297928,39.2652779,41.49366,36.7320747,43.2915115,35.7008247z"/><path d="M56.7309647,50.5177193c0.0634766-0.2104492,0.152832-0.4179688,0.2314453-0.6270752   c0.065918-0.1746826,0.1186523-0.3511963,0.1943359-0.5239258c0.1298828-0.2971191,0.284668-0.5858154,0.4414063-0.8729248   c0.0429688-0.0778809,0.0756836-0.1599121,0.1201172-0.2368164c0.8354492-1.4476318,1.9897461-2.7114258,3.2626953-3.4458008   c0.0371094-0.0211182,0.0732422-0.032959,0.1098633-0.0529785c0.1801758-0.0991211,0.3583984-0.184082,0.5356445-0.2583008   c0.0546875-0.0228271,0.109375-0.045166,0.1645508-0.0656738c0.2138672-0.0806885,0.4257813-0.1488037,0.6328125-0.192627   l-12.8188477-7.4450684c-0.2832031-0.1669922-0.6103516-0.2509766-0.9677734-0.2509766   c-0.1435547,0-0.2924805,0.0159912-0.4453125,0.0427246c-0.0004883,0-0.0004883,0.0002441-0.0009766,0.0002441   c-0.1450195,0.0233154-0.3027344,0.0654297-0.4663086,0.1202393c-0.0336914,0.0111084-0.0678711,0.026001-0.1015625,0.038208   c-0.1499023,0.0550537-0.3041992,0.1186523-0.4643555,0.199707c-0.0917969,0.0454102-0.1826172,0.0866699-0.2753906,0.1398926   c-0.2836914,0.1635742-0.5605469,0.357666-0.8286133,0.5744629c-0.140625,0.114624-0.2734375,0.2495117-0.4086914,0.3776855   c-0.1064453,0.0991211-0.215332,0.19104-0.3178711,0.2971191c-0.230957,0.2424316-0.453125,0.5019531-0.6630859,0.7763672   c-0.0004883,0.0008545-0.0014648,0.0014648-0.0019531,0.0021973c-0.4111328,0.5377197-0.7734375,1.1308594-1.0766602,1.7463379   c-0.019043,0.0397949-0.0410156,0.0786133-0.0600586,0.1186523c-0.1176758,0.2474365-0.2182617,0.4996338-0.3139648,0.7521973   c-0.0390625,0.1037598-0.0805664,0.2067871-0.1152344,0.310791c-0.0668945,0.1962891-0.1196289,0.3928223-0.171875,0.5892334   c-0.043457,0.168335-0.0854492,0.3363037-0.1171875,0.5037842c-0.0288086,0.1462402-0.0488281,0.2906494-0.0678711,0.4353027   c-0.034668,0.2702637-0.0668945,0.5405273-0.0668945,0.802002c0.0078125,1.1826172,0.3964844,2.0585938,1.0927734,2.4658203   l12.8261719,7.4492188c-0.03125-0.0960693-0.046875-0.2058105-0.0717773-0.3076172   c-0.0195313-0.081543-0.0415039-0.1599121-0.0566406-0.244751c-0.0551758-0.2960205-0.0927734-0.6057129-0.0952148-0.9407959   c0-0.7299805,0.1289063-1.4995117,0.3598633-2.2663574C56.7294998,50.5247993,56.7299881,50.5211372,56.7309647,50.5177193z"/><path d="M29.1479549,29.2708931c-0.0351563-0.0739746-0.0737305-0.145752-0.1132813-0.2167969   c-0.0605469-0.1118164-0.1279297-0.2192383-0.199707-0.3237305c-0.0625-0.0900879-0.1264648-0.1791992-0.1958008-0.2630615   c-0.0678711-0.0817871-0.1430664-0.1572266-0.2177734-0.2330322c-0.0810547-0.0819092-0.159668-0.1660156-0.2480469-0.2402344   c-0.0888672-0.0744629-0.1879883-0.1380615-0.284668-0.2045898c-0.0795898-0.0550537-0.1542969-0.1166992-0.2387695-0.1657715   l-2.4814453-1.4467773l-1.1313477-0.6569824c-0.0102539-0.0039063-0.0200195-0.0085449-0.0297852-0.0130615   c-0.5703125-0.3192139-1.2114258-0.2791748-1.9101563,0.1207275c-1.4306641,0.8222656-2.6435547,2.90625-2.6474609,4.5507813   c-0.0019531,0.8105469,0.2871094,1.390625,0.8603516,1.7236328c0.0004883,0.0002441,0.0009766,0.0008545,0.0014648,0.0012207   l3.6176758,2.1013184c0.5654297,0.328125,1.2080078,0.5009766,1.8583984,0.5009766   c1.3154297,0,2.5429688-0.703125,3.203125-1.8359375c0.4970703-0.8525391,0.6318359-1.8466797,0.3798828-2.7988281   C29.3154354,29.6615181,29.2358456,29.4635201,29.1479549,29.2708931z"/><path d="M42.7177811,40.8341255c0.1357422-0.3010254,0.284668-0.5952148,0.4477539-0.8845215   c0.0385742-0.0681152,0.0761719-0.135498,0.1157227-0.2028809c0.1704102-0.2878418,0.3520508-0.5656738,0.5463867-0.8353271   c0.0385742-0.0540771,0.0742188-0.1102295,0.1142578-0.1636963c0.465332-0.6230469,0.9873047-1.1834717,1.5498047-1.651123   c0.0805664-0.0668945,0.1635742-0.1230469,0.2456055-0.1859131c0.1386719-0.1065674,0.2749023-0.2218018,0.4174805-0.3161621   l-0.6943359-0.4005127c-0.1005859-0.0610352-0.2143555-0.0987549-0.3339844-0.1247559   c-0.0410156-0.0087891-0.0849609-0.0106201-0.1279297-0.0153809c-0.0727539-0.0081787-0.1484375-0.0092773-0.2265625-0.0056152   c-0.1181641,0.0053711-0.2416992,0.027832-0.3686523,0.0598145c-0.0512695,0.0129395-0.1000977,0.0195313-0.152832,0.0366211   c-0.1816406,0.0595703-0.3691406,0.1391602-0.5605469,0.2495117c-1.5498047,0.8896484-2.859375,3.1572266-2.859375,4.953125   c0,0.6314697,0.1806641,1.1325684,0.4887695,1.442749c0.0644531,0.0622559,0.1264648,0.1280518,0.2026367,0.1724854   l0.4453125,0.2568359c0.0600586-0.3664551,0.1533203-0.7353516,0.2636719-1.1035156   c0.0087891-0.0302734,0.0209961-0.0598145,0.0302734-0.0900879c0.1049805-0.3383789,0.2299805-0.6733398,0.3725586-1.0056152   C42.6606522,40.9574165,42.689949,40.8963814,42.7177811,40.8341255z"/><path d="M57.6250076,54.5862007c0.0581055,0.0941162,0.105957,0.2008057,0.1748047,0.2813721   c0.0102539,0.0115967,0.0239258,0.0175781,0.0341797,0.0288086c0.128418,0.1425781,0.2700195,0.267334,0.4331055,0.361084   c0.7148438,0.4111328,1.6884766,0.3017578,2.7421875-0.3076172c2.2783203-1.3144531,4.1972656-4.6347656,4.1894531-7.25   c-0.0029297-1.1914063-0.390625-2.0695801-1.0869141-2.4807129c-0.003418-0.0019531-0.0073242-0.001709-0.0107422-0.0036621   l-0.0224609-0.0126953c-0.1743164-0.1000977-0.3647461-0.168457-0.5688477-0.2054443   c-0.0117188-0.0020752-0.0249023,0.0008545-0.0366211-0.0010986c-0.1938477-0.0314941-0.3974609-0.0400391-0.6132813-0.0159912   c-0.4584961,0.0516357-0.9589844,0.2280273-1.4785156,0.5281982c-1.4545898,0.8389893-2.7373047,2.4289551-3.4931641,4.1560059   c-0.0424805,0.097168-0.0698242,0.1967773-0.1088867,0.2946777c-0.378418,0.9472656-0.6088867,1.9227295-0.605957,2.831543   c0.0014648,0.5825195,0.0981445,1.0876465,0.2768555,1.5014648C57.4980545,54.4024849,57.5654373,54.489399,57.6250076,54.5862007z   "/><path d="M22.2807674,23.5748482l2.4067383-1.4018555c0.0004883-0.0003662,0.0009766-0.0010986,0.0014648-0.0014648   c0.0009766,0,0.0009766-0.0009766,0.0019531-0.0009766l1.3544922-0.7890625   c-2.2348633-0.0397949-4.4619141,0.1501465-6.5776367,0.5598145L22.2807674,23.5748482z"/><path d="M41.6372147,16.3668404c-4.4707031-2.5791006-10.3310566-3.8691397-16.1826191-3.8691397   c-5.8457031,0-11.6826162,1.2871094-16.1162109,3.8613272c-4.2016606,2.440918-6.5146484,5.659668-6.5180664,9.0661621   c0,0.0007324,0.0004883,0.0014648,0.0004883,0.0021973c0,1.1027832,0.265625,2.1811523,0.7314453,3.2246094   c0.9946287,2.2197266,2.9887693,4.2680664,5.8984375,5.9462891c8.9335928,5.1542969,23.4228516,5.1552734,32.2978516,0.0009766   c1.0493164-0.6091309,1.9799805-1.2672119,2.7871094-1.9645996c2.4160156-2.0916748,3.7172852-4.5373535,3.7246094-7.0881348   c0-0.0048828,0.0029297-0.0090332,0.0029297-0.013916c0-0.0041504,0.0009766-0.0083008,0.0009766-0.0124512   C48.259285,22.0807076,45.9057693,18.829731,41.6372147,16.3668404z M44.9238358,25.9300728   c-0.0087891,0.1467285-0.0170898,0.2932129-0.0356445,0.4394531c-0.0258789,0.206543-0.0625,0.4111328-0.1064453,0.6149902   c-0.0263672,0.119873-0.0571289,0.2391357-0.0898438,0.3585205c-0.0610352,0.2249756-0.1274414,0.4486084-0.2104492,0.6697998   c-0.0244141,0.0646973-0.0556641,0.1286621-0.0820313,0.1931152c-0.8300781,2.03479-2.5805664,3.8983154-5.1674805,5.4001465   c-3.7519531,2.1787109-8.689455,3.2685547-13.6318378,3.2685547c-4.9394531,0-9.8828115-1.0878906-13.6542959-3.2636719   c-2.5366211-1.463623-4.2807622-3.2675781-5.1586919-5.2386475c-0.065918-0.1473389-0.1347656-0.2940674-0.1904297-0.4425049   c-0.0629883-0.1691895-0.1142578-0.3398438-0.1645508-0.5112305c-0.0517578-0.1759033-0.0961914-0.3520508-0.1342773-0.5290527   c-0.0317383-0.1489258-0.0639648-0.2973633-0.0859375-0.4477539c-0.0415039-0.2789307-0.0644531-0.5587158-0.0712891-0.8393555   c-0.0009766-0.0493164-0.012207-0.0974121-0.012207-0.1467285c0-0.0107422,0.0024414-0.0214844,0.0024414-0.0322266   c0.0009766-0.3449707,0.03125-0.6594238,0.0786133-0.9628906c0.0117188-0.0827637,0.0219727-0.1657715,0.0371094-0.2481689   c0.0009766-0.0047607,0.0009766-0.0098877,0.0019531-0.0145264c0.0390625-0.2607422,0.1142578-0.5390625,0.2001953-0.8183594   c0.0058594-0.019043,0.0141602-0.0375977,0.0200195-0.0566406c0.0351563-0.1107178,0.0771484-0.2198486,0.1176758-0.3295898   c0.0947266-0.2587891,0.2006836-0.5134277,0.3232422-0.7607422c0.0561523-0.1135254,0.1201172-0.2249756,0.1821289-0.3371582   c0.0776367-0.1391602,0.1533203-0.2791748,0.2387695-0.4172363c0.0429688-0.069458,0.0961914-0.1379395,0.1416016-0.2072754   c0.0771484-0.1154785,0.152832-0.2312012,0.2363281-0.3450928c0.1791992-0.244751,0.3710942-0.4876709,0.5839849-0.7249756   c0.0043945-0.005127,0.0097656-0.0097656,0.0141602-0.0148926c0.1176758-0.1329346,0.2460938-0.262207,0.3730469-0.3924561   c0.065918-0.0679932,0.1264648-0.1397705,0.1958008-0.2059326c0.0883789-0.0871582,0.1875-0.1713867,0.2802734-0.2573242   c0.1152344-0.1060791,0.2246094-0.2138672,0.3461914-0.3178711c0.2797852-0.2404785,0.581543-0.4741211,0.8959961-0.7033691   c0.1142578-0.083252,0.2324219-0.1650391,0.3510742-0.246582c0.3349609-0.2307129,0.6816406-0.456543,1.050293-0.6730957   c0.0200195-0.0119629,0.0371094-0.0252686,0.0576172-0.0371094c4.1279297-2.3984365,9.6933584-3.4672842,15.1235342-3.2235098   c0.1157227,0.005249,0.2324219,0.0032959,0.3481445,0.0096436c0.1977539,0.0109863,0.3930664,0.034668,0.5908203,0.0491943   c4.0986347,0.3000488,8.0688496,1.3470459,11.2216816,3.1636953c0.421875,0.2443848,0.8164063,0.5009766,1.1958008,0.7636719   c0.1201172,0.0827637,0.2329102,0.1679688,0.3481445,0.2524414c0.2460938,0.1804199,0.4829102,0.364502,0.7089844,0.5524902   c0.1298828,0.107666,0.2592773,0.2150879,0.3823242,0.3250732c0.1928711,0.1727295,0.371582,0.3499756,0.5473633,0.5284424   c0.1513672,0.1529541,0.3022461,0.3054199,0.4414063,0.4621582c0.1962891,0.2226563,0.3725586,0.4401855,0.5327148,0.6535645   c0.0874023,0.1162109,0.1733398,0.2324219,0.2539063,0.3502197l0.2651367,0.401001   c0.0419922,0.0695801,0.0717773,0.1411133,0.1113281,0.2110596c0.1025391,0.1789551,0.1982422,0.3587646,0.2856445,0.5408936   c0.065918,0.1386719,0.1225586,0.2780762,0.1796875,0.4178467c0.0800781,0.1959229,0.1616211,0.3914795,0.2241211,0.5904541   c0.0400391,0.1274414,0.0649414,0.2558594,0.0976563,0.3837891c0.0917969,0.3599854,0.1552734,0.7236328,0.1894531,1.0914307   c0.0146484,0.1575928,0.0361328,0.3148193,0.0400391,0.4725342c0.0014648,0.0533447,0.0136719,0.1057129,0.0136719,0.1591797   C44.9585037,25.6495552,44.9326248,25.7889595,44.9238358,25.9300728z"/><path d="M44.080574,24.6141548c-0.0117188-0.0780029-0.0205078-0.1560059-0.0356445-0.2338867   c-0.0561523-0.298584-0.1313477-0.5947266-0.2314453-0.8874512c-0.0292969-0.0844727-0.0698242-0.1682129-0.1025391-0.2524414   c-0.0795898-0.206543-0.1689453-0.411377-0.2700195-0.6142578c-0.0620117-0.1240234-0.1293945-0.2475586-0.199707-0.3708496   c-0.1313477-0.2302246-0.2700195-0.4592285-0.4287109-0.6837158c-0.0551758-0.0784912-0.1235352-0.1635742-0.1860352-0.2460938   c-0.1748047-0.2301025-0.3603516-0.4577637-0.5639648-0.6806641c-0.1137695-0.1252441-0.2436523-0.2458496-0.3662109-0.3685303   c-0.15625-0.1552734-0.3129883-0.3100586-0.4829102-0.4609375c-0.1186523-0.1057129-0.2431641-0.2093506-0.3686523-0.3127441   c-0.2109375-0.173584-0.4306641-0.3438721-0.6606445-0.5109863c-0.1064453-0.0773926-0.2099609-0.1558838-0.3203125-0.2319336   c-0.3549805-0.2440186-0.7246094-0.4829102-1.1201172-0.7111816c-3.2070313-1.8508301-7.2861347-2.8919668-11.4702168-3.1232901   c-0.0776367-0.0042725-0.15625-0.0026855-0.234375-0.0064697c-0.5195313-0.0250244-1.0405273-0.0430908-1.5615234-0.0430908   c-4.7944336,0-9.5810537,1.0559082-13.2163076,3.1679678c-0.0224609,0.0129395-0.0419922,0.0268555-0.0644531,0.0397949   c-0.3388672,0.1987305-0.65625,0.4060059-0.9643555,0.6164551c-0.1176758,0.0808105-0.234375,0.1617432-0.347168,0.2440186   c-0.2729492,0.1981201-0.5341797,0.4005127-0.7802734,0.6075439c-0.1323242,0.1120605-0.2553711,0.2266846-0.3793945,0.3410645   c-0.1513672,0.1384277-0.2973633,0.2783203-0.4370117,0.420166c-0.121582,0.1242676-0.2421875,0.2486572-0.3549805,0.3737793   c-0.1992188,0.2231445-0.3876953,0.4487305-0.5576172,0.678833c-0.0708008,0.0953369-0.1318359,0.19104-0.1962891,0.2867432   c-0.1254883,0.1848145-0.2412114,0.371582-0.348145,0.5603027c-0.0522461,0.092041-0.109375,0.184082-0.1577148,0.2762451   c-0.0161133,0.0313721-0.0258789,0.0635986-0.0415039,0.0950928C7.477057,22.895649,7.3432679,23.222187,7.2368226,23.5565376   c-0.0830078,0.2592773-0.1533203,0.5202637-0.2016602,0.7839355c-0.0141602,0.0697021-0.0200195,0.1413574-0.03125,0.2114258   c-0.0415039,0.2806396-0.0688477,0.5628662-0.0708008,0.847168c-0.0004883,0.0136719-0.0019531,0.0253906-0.0019531,0.0390625   c0,0.0390625,0.0048828,0.0782471,0.0058594,0.1174316c0.0048828,0.2575684,0.0302734,0.5131836,0.0668945,0.7678223   c0.0131836,0.0900879,0.0229492,0.1804199,0.0405273,0.2703857c0.0478516,0.2525635,0.1166992,0.5026855,0.1958008,0.7512207   c0.0375977,0.1177979,0.0791016,0.2352295,0.1240234,0.352417c0.0136719,0.0361328,0.0327148,0.0712891,0.046875,0.1071777   c0.9799809-1.487793,2.4956059-2.8510742,4.4282231-3.9729004c0.2363281-0.140625,0.4824219-0.2734375,0.7373047-0.4072266   c0.0371094-0.0761719,0.0771484-0.1494141,0.1201172-0.2216797c0.1518555-0.2581787,0.3266602-0.4935303,0.5170898-0.7099609   c0.0478516-0.0539551,0.1035156-0.0964355,0.1538086-0.1477051c0.1542969-0.1595459,0.3134766-0.3125,0.4868164-0.4455566   c0.046875-0.0358887,0.0986328-0.0635986,0.1469727-0.0974121c0.1894531-0.1340332,0.3847656-0.2559814,0.5908203-0.3581543   c0.0410156-0.0202637,0.0834961-0.0351563,0.1254883-0.0540771c0.2182617-0.1002197,0.4418945-0.1844482,0.6733398-0.2481689   c0.0439453-0.012085,0.0883789-0.0200195,0.1328125-0.0308838c0.2260742-0.0549316,0.4541016-0.0936279,0.6870108-0.1126709   c0.0639648-0.0054932,0.1269531-0.0068359,0.1914063-0.0095215c0.2045898-0.0079346,0.4091797-0.0030518,0.6152344,0.0178223   c0.0986328,0.0092773,0.1958008,0.0231934,0.2939453,0.0390625c0.1630859,0.0274658,0.3242188,0.0646973,0.4863281,0.1109619   c0.1342773,0.0374756,0.2661133,0.0797119,0.3984375,0.1303711c0.0512695,0.0198975,0.1040039,0.0286865,0.1547852,0.0506592   c2.8505859-0.6513672,5.9589844-0.9052734,9.0126953-0.7265625l2.9052734-1.6894531   c2.1513691-1.2373047,4.9111347-0.5087891,6.1572285,1.6240234c0.1293945,0.2253418,0.230957,0.4599609,0.3198242,0.6981201   c0.0292969,0.0775146,0.0556641,0.1549072,0.0800781,0.2336426c0.0678711,0.2166748,0.1225586,0.4356689,0.1567383,0.6582031   c0.0058594,0.0408936,0.0136719,0.0811768,0.0185547,0.1223145c0.0224609,0.1783447,0.0366211,0.3577881,0.0371094,0.5377197   c0.7314453,0.3144531,1.4306641,0.6660156,2.0839844,1.046875c1.9873047,1.1407471,3.5400391,2.5356445,4.5356445,4.0670166   c0.0131836-0.0319824,0.0288086-0.0633545,0.0415039-0.0955811c0.0639648-0.1608887,0.1196289-0.3222656,0.1699219-0.4841309   c0.0551758-0.1807861,0.1015625-0.362793,0.1401367-0.5458984c0.0219727-0.0996094,0.050293-0.1989746,0.0668945-0.2988281   c0.0478516-0.2978516,0.0722656-0.5980225,0.0756836-0.8999023c0.0009766-0.0722656-0.0043945-0.1445313-0.0058594-0.2167969   C44.1401443,25.1153755,44.1176834,24.8639107,44.080574,24.6141548z"/><path d="M18.1230526,22.1136665c-0.2050781-0.0949707-0.4145508-0.1694336-0.6254883-0.2246094   c-0.0341797-0.0085449-0.0683594-0.0124512-0.1020508-0.0200195c-0.1542969-0.0355225-0.309082-0.0578613-0.4638672-0.0732422   c-0.0859375-0.0078125-0.171875-0.0146484-0.2573242-0.0164795c-0.1015625-0.0028076-0.2021484,0.0032959-0.3032227,0.0089111   c-0.1796875,0.0107422-0.3574219,0.0339355-0.5332022,0.0703125c-0.0751953,0.015625-0.1508789,0.0283203-0.2246094,0.048584   c-0.105957,0.0288086-0.2094727,0.0651855-0.3129883,0.1032715c-0.0830078,0.0307617-0.1640625,0.0651855-0.2451172,0.1020508   c-0.0888672,0.0401611-0.1777344,0.0789795-0.2631836,0.1259766c-0.15625,0.0869141-0.3076172,0.1835938-0.4506836,0.2935791   c-0.0473633,0.0360107-0.0908203,0.0780029-0.1367188,0.116333c-0.1162109,0.0986328-0.2280273,0.2036133-0.3334961,0.317749   c-0.0390625,0.0422363-0.078125,0.0845947-0.1152344,0.1287842c-0.1323242,0.1577148-0.2568359,0.3244629-0.3652344,0.5075684   c-0.0014648,0.0024414-0.0029297,0.0042725-0.0043945,0.0065918c-0.4970703,0.8515625-0.6318359,1.8447266-0.3798828,2.7978516   c0.2519531,0.9550781,0.8623047,1.7539063,1.7177734,2.2509766l4.0126944,2.3306885   c-0.0585938-0.2518311-0.0878906-0.5231934-0.0878906-0.8121338c0.0048828-1.9277344,1.3730469-4.2792969,3.0498047-5.2421875   c0.2553711-0.1461182,0.5083008-0.2558594,0.7587891-0.3292236l-0.3789063-0.2215576   c-0.0004883-0.0003662-0.0009766-0.0010986-0.0014648-0.0014648l-3.6293945-2.1079102   C18.3418026,22.2125435,18.2324276,22.1634712,18.1230526,22.1136665z"/></g><text x="0" y="83" fill="#000000" font-size="5px" font-weight="bold" font-family="'Helvetica Neue', Helvetica, Arial-Unicode, Arial, Sans-serif">Created by VectorsLab</text><text x="0" y="88" fill="#000000" font-size="5px" font-weight="bold" font-family="'Helvetica Neue', Helvetica, Arial-Unicode, Arial, Sans-serif">from the Noun Project</text></svg>