<svg fill="#9ca3af" xmlns="http://www.w3.org/2000/svg" xmlns:xlink="http://www.w3.org/1999/xlink" version="1.1" x="0px" y="0px" viewBox="0 0 26 32.5" style="enable-background:new 0 0 26 26;" xml:space="preserve"><g><path d="M19.5300293,1.7298608H6.4499512C3.4499512,1.7298608,1,4.179873,1,7.1998925v7.5799565   c0,2.7999868,2.1098633,5.1199942,4.8199463,5.4299917v2.3600464c0,0.6499634,0.3699951,1.2399902,0.9500732,1.5299683   c0.5310583,0.2655296,1.253211,0.2315483,1.789917-0.1799927l4.7399902-3.6699829h6.2301025   C22.5499268,20.2498798,25,17.7998676,25,14.7798491V7.1998925C25,4.179873,22.5499268,1.7298608,19.5300293,1.7298608z    M15.7099609,12.6398954l-3.0800781,2.1799927c-0.6083212,0.4346962-1.4002905,0.5119686-2.0998535,0.1499634   c-0.670166-0.3499756-1.0900879-1.039978-1.0900879-1.7999878V8.8098783c0-0.7600098,0.4199219-1.4500127,1.0900879-1.7999883   c0.6799316-0.3500366,1.4799805-0.2900391,2.0998535,0.1499634l3.0800781,2.1799932   C16.8508053,10.1577749,16.8330021,11.8347301,15.7099609,12.6398954z"/></g><text x="0" y="41" fill="#000000" font-size="5px" font-weight="bold" font-family="'Helvetica Neue', Helvetica, Arial-Unicode, Arial, Sans-serif">Created by Brickclay</text><text x="0" y="46" fill="#000000" font-size="5px" font-weight="bold" font-family="'Helvetica Neue', Helvetica, Arial-Unicode, Arial, Sans-serif">from the Noun Project</text></svg>